<?xml version="1.0" encoding="UTF-8" standalone="no"?>
<!DOCTYPE svg PUBLIC "-//W3C//DTD SVG 1.1//EN"
 "http://www.w3.org/Graphics/SVG/1.1/DTD/svg11.dtd">
<!-- Generated by graphviz version 9.0.0 (20230911.1827)
 -->
<!-- Title: include/tianzuo.QiankunInterface.h Pages: 1 -->
<svg width="288pt" height="140pt"
 viewBox="0.00 0.00 288.12 140.00" xmlns="http://www.w3.org/2000/svg" xmlns:xlink="http://www.w3.org/1999/xlink">
<g id="graph0" class="graph" transform="scale(1 1) rotate(0) translate(4 136)">
<title>include/tianzuo.QiankunInterface.h</title>
<!-- Node1 -->
<g id="Node000001" class="node">
<title>Node1</title>
<g id="a_Node000001"><a xlink:title=" ">
<polygon fill="#999999" stroke="#666666" points="231.38,-132 66.12,-132 66.12,-112 231.38,-112 231.38,-132"/>
<text text-anchor="middle" x="148.75" y="-118.5" font-family="Helvetica,sans-Serif" font-size="10.00">include/tianzuo.QiankunInterface.h</text>
</a>
</g>
</g>
<!-- Node2 -->
<g id="Node000002" class="node">
<title>Node2</title>
<g id="a_Node000002"><a xlink:href="tianzuo_8_qiankun_8h.html" target="_top" xlink:title=" ">
<polygon fill="white" stroke="#666666" points="196.12,-76 101.38,-76 101.38,-56 196.12,-56 196.12,-76"/>
<text text-anchor="middle" x="148.75" y="-62.5" font-family="Helvetica,sans-Serif" font-size="10.00">tianzuo.Qiankun.h</text>
</a>
</g>
</g>
<!-- Node1&#45;&gt;Node2 -->
<g id="edge1_Node000001_Node000002" class="edge">
<title>Node1&#45;&gt;Node2</title>
<g id="a_edge1_Node000001_Node000002"><a xlink:title=" ">
<path fill="none" stroke="#63b8ff" d="M148.75,-111.59C148.75,-105.01 148.75,-95.96 148.75,-87.73"/>
<polygon fill="#63b8ff" stroke="#63b8ff" points="152.25,-87.81 148.75,-77.81 145.25,-87.81 152.25,-87.81"/>
</a>
</g>
</g>
<!-- Node3 -->
<g id="Node000003" class="node">
<title>Node3</title>
<g id="a_Node000003"><a xlink:title=" ">
<polygon fill="#e0e0e0" stroke="#999999" points="53.5,-20 0,-20 0,0 53.5,0 53.5,-20"/>
<text text-anchor="middle" x="26.75" y="-6.5" font-family="Helvetica,sans-Serif" font-size="10.00">iostream</text>
</a>
</g>
</g>
<!-- Node2&#45;&gt;Node3 -->
<g id="edge2_Node000002_Node000003" class="edge">
<title>Node2&#45;&gt;Node3</title>
<g id="a_edge2_Node000002_Node000003"><a xlink:title=" ">
<path fill="none" stroke="#63b8ff" d="M127.5,-55.59C108.46,-47.17 80.27,-34.69 58.55,-25.07"/>
<polygon fill="#63b8ff" stroke="#63b8ff" points="60.11,-21.94 49.55,-21.09 57.28,-28.34 60.11,-21.94"/>
</a>
</g>
</g>
<!-- Node4 -->
<g id="Node000004" class="node">
<title>Node4</title>
<g id="a_Node000004"><a xlink:title=" ">
<polygon fill="#e0e0e0" stroke="#999999" points="110.38,-20 71.12,-20 71.12,0 110.38,0 110.38,-20"/>
<text text-anchor="middle" x="90.75" y="-6.5" font-family="Helvetica,sans-Serif" font-size="10.00">utility</text>
</a>
</g>
</g>
<!-- Node2&#45;&gt;Node4 -->
<g id="edge3_Node000002_Node000004" class="edge">
<title>Node2&#45;&gt;Node4</title>
<g id="a_edge3_Node000002_Node000004"><a xlink:title=" ">
<path fill="none" stroke="#63b8ff" d="M138.65,-55.59C130.5,-48.01 118.82,-37.13 109.03,-28.02"/>
<polygon fill="#63b8ff" stroke="#63b8ff" points="111.55,-25.58 101.84,-21.33 106.78,-30.71 111.55,-25.58"/>
</a>
</g>
</g>
<!-- Node5 -->
<g id="Node000005" class="node">
<title>Node5</title>
<g id="a_Node000005"><a xlink:title=" ">
<polygon fill="#e0e0e0" stroke="#999999" points="169.5,-20 128,-20 128,0 169.5,0 169.5,-20"/>
<text text-anchor="middle" x="148.75" y="-6.5" font-family="Helvetica,sans-Serif" font-size="10.00">vector</text>
</a>
</g>
</g>
<!-- Node2&#45;&gt;Node5 -->
<g id="edge4_Node000002_Node000005" class="edge">
<title>Node2&#45;&gt;Node5</title>
<g id="a_edge4_Node000002_Node000005"><a xlink:title=" ">
<path fill="none" stroke="#63b8ff" d="M148.75,-55.59C148.75,-49.01 148.75,-39.96 148.75,-31.73"/>
<polygon fill="#63b8ff" stroke="#63b8ff" points="152.25,-31.81 148.75,-21.81 145.25,-31.81 152.25,-31.81"/>
</a>
</g>
</g>
<!-- Node6 -->
<g id="Node000006" class="node">
<title>Node6</title>
<g id="a_Node000006"><a xlink:title=" ">
<polygon fill="#e0e0e0" stroke="#999999" points="227.75,-20 187.75,-20 187.75,0 227.75,0 227.75,-20"/>
<text text-anchor="middle" x="207.75" y="-6.5" font-family="Helvetica,sans-Serif" font-size="10.00">string</text>
</a>
</g>
</g>
<!-- Node2&#45;&gt;Node6 -->
<g id="edge5_Node000002_Node000006" class="edge">
<title>Node2&#45;&gt;Node6</title>
<g id="a_edge5_Node000002_Node000006"><a xlink:title=" ">
<path fill="none" stroke="#63b8ff" d="M159.03,-55.59C167.32,-48.01 179.2,-37.13 189.15,-28.02"/>
<polygon fill="#63b8ff" stroke="#63b8ff" points="191.46,-30.65 196.47,-21.32 186.73,-25.49 191.46,-30.65"/>
</a>
</g>
</g>
<!-- Node7 -->
<g id="Node000007" class="node">
<title>Node7</title>
<g id="a_Node000007"><a xlink:title=" ">
<polygon fill="#e0e0e0" stroke="#999999" points="280.12,-20 245.38,-20 245.38,0 280.12,0 280.12,-20"/>
<text text-anchor="middle" x="262.75" y="-6.5" font-family="Helvetica,sans-Serif" font-size="10.00">map</text>
</a>
</g>
</g>
<!-- Node2&#45;&gt;Node7 -->
<g id="edge6_Node000002_Node000007" class="edge">
<title>Node2&#45;&gt;Node7</title>
<g id="a_edge6_Node000002_Node000007"><a xlink:title=" ">
<path fill="none" stroke="#63b8ff" d="M168.61,-55.59C186.88,-46.94 214.19,-34 234.69,-24.29"/>
<polygon fill="#63b8ff" stroke="#63b8ff" points="236.09,-27.5 243.62,-20.06 233.09,-21.18 236.09,-27.5"/>
</a>
</g>
</g>
</g>
</svg>
