<?xml version="1.0" standalone="no"?><!DOCTYPE svg PUBLIC "-//W3C//DTD SVG 1.1//EN" "http://www.w3.org/Graphics/SVG/1.1/DTD/svg11.dtd"><svg t="1619168810951" class="icon" viewBox="0 0 1024 1024" version="1.1" xmlns="http://www.w3.org/2000/svg" p-id="2857" width="24" height="24" xmlns:xlink="http://www.w3.org/1999/xlink"><defs><style type="text/css"></style></defs><path d="M950.787046 921.69087c0 0.026606 0.00921 0.055259 0.00921 0.086981 0 20.518313-18.418488 37.150108-41.134863 37.150108L114.340653 958.927959c-22.719444 0-41.136909-16.631796-41.136909-37.150108 0-0.031722 0.011256-0.060375 0.011256-0.086981l-0.029676 0c0 0 0-135.36806 109.533672-184.599322 69.309552-31.135114 42.62889-5.856381 127.7168-37.731346 85.085864-31.816636 105.246019-42.923602 105.246019-42.923602l-4.946662-55.972802c0 0-95.563496-24.50102-110.180402-119.856785-29.445636 7.192819-39.163975-29.207206-40.900525-52.379974-1.575892-22.382776-17.033955-92.305289 18.874883-85.995583-7.347339-46.687322-12.621459-88.784092-10.032494-111.086028 4.332678-37.674041-5.878894-43.045375 32.034601-73.505108 9.342786-7.504928-8.079002-42.533722-2.407839-54.033637 10.423397-21.13332 87.834464-11.460006 99.726306-16.260335 30.900777-12.485359 66.603931-20.546965 106.336864-22.275329 161.679309 5.966898 225.729068 87.717807 234.707556 166.009941 2.62171 22.308075-3.145643 64.437591-10.500145 111.043049 35.933397-6.226818 20.314675 63.578014 18.568914 85.97-1.589195 23.174815-11.534707 59.446927-40.892339 52.274574-14.680351 95.346555-92.842525 119.716592-92.842525 119.716592l-4.89652 55.621808c0 0 20.149922 10.388605 105.238856 42.219567 85.09712 31.866778 58.398038 8.037047 127.717823 39.181371 109.525486 49.212842 109.525486 184.580902 109.525486 184.580902L950.787046 921.688823z" p-id="2858" fill="#1397f9"></path></svg>