<?xml version="1.0" standalone="no"?><!DOCTYPE svg PUBLIC "-//W3C//DTD SVG 1.1//EN" "http://www.w3.org/Graphics/SVG/1.1/DTD/svg11.dtd"><svg t="1491372979727" class="icon" style="" viewBox="0 0 1024 1024" version="1.1" xmlns="http://www.w3.org/2000/svg" p-id="8155" xmlns:xlink="http://www.w3.org/1999/xlink" width="24" height="24"><defs><style type="text/css"></style></defs><path d="M938.666667 622.933333h85.333333V401.066667h-85.333333c-89.6 0-110.933333-51.2-46.933334-115.2l59.733334-59.733334-153.6-153.6-59.733334 59.733334c-64 64-115.2 42.666667-115.2-46.933334V0H401.066667v85.333333c0 89.6-51.2 110.933333-115.2 46.933334L226.133333 72.533333 72.533333 226.133333l59.733334 59.733334c64 64 42.666667 115.2-46.933334 115.2H0v217.6h85.333333c89.6 0 110.933333 51.2 46.933334 115.2l-59.733334 59.733333 153.6 153.6 59.733334-59.733333c64-64 110.933333-42.666667 115.2 46.933333v85.333333h217.6v-85.333333c0-89.6 51.2-110.933333 115.2-46.933333l59.733333 59.733333 153.6-153.6-59.733333-59.733333c-59.733333-59.733333-38.4-110.933333 51.2-110.933334z m-426.666667 81.066667c-106.666667 0-192-85.333333-192-192s85.333333-192 192-192 192 85.333333 192 192-85.333333 192-192 192z" p-id="8156" fill="#1397F9"></path></svg>