<?xml version="1.0" standalone="no"?><!DOCTYPE svg PUBLIC "-//W3C//DTD SVG 1.1//EN" "http://www.w3.org/Graphics/SVG/1.1/DTD/svg11.dtd"><svg t="1594277136192" class="icon" viewBox="0 0 1024 1024" version="1.1" xmlns="http://www.w3.org/2000/svg" p-id="2121" width="24" height="24" xmlns:xlink="http://www.w3.org/1999/xlink"><defs><style type="text/css"></style></defs><path d="M512 45.568c-3.328 0-7.424 0.768-10.752 0.768-1.28 0-3.328-0.768-4.608-0.768-4.608 0-9.216 0.768-14.08 1.28-115.712 7.424-220.16 56.576-298.24 133.12h-0.768l-0.768 1.28c-87.552 87.296-136.96 206.336-136.704 330.24 0 247.552 193.024 449.28 436.48 464.64 4.608 0.768 9.216 1.28 14.08 1.28 2.048 0 3.328-0.768 4.608-0.768 3.328 0 7.424 0.768 10.752 0.768 257.536 0 465.92-208.384 465.92-465.92s-208.384-465.92-465.92-465.92z m-11.264 869.12c-4.096 0-7.936-0.768-12.032-0.768-37.376-7.424-82.432-64.512-112.384-159.744 80.128-12.288 161.792-13.312 242.176-3.328-32 100.608-79.872 160-117.76 163.84z m11.264-232.192c-52.48 0-103.936 4.096-152.32 11.264-9.216-45.312-15.872-95.744-17.92-151.04h308.736c-2.048 54.016-7.936 103.168-17.408 147.2-38.656-4.864-79.104-7.424-121.088-7.424z m-206.336-394.752c-14.592 57.856-24.064 123.136-25.856 192.256H110.08c6.656-85.248 39.168-163.072 90.624-225.024 30.976 13.568 66.304 24.064 104.96 32.768z m183.04-178.944c4.096 0 7.936-0.768 12.032-0.768 34.56 3.328 76.544 51.2 107.776 134.4-73.984 7.168-148.48 5.888-222.208-4.096 29.696-77.056 69.12-122.88 102.4-129.536z m126.464 12.544c60.672 15.872 115.2 45.312 161.024 85.248-32 11.264-67.328 19.968-105.728 26.624-13.056-39.68-31.744-77.312-55.296-111.872zM512 309.76c39.168 0 77.824-2.56 115.2-6.656 13.312 51.2 22.016 110.592 24.064 177.664h-309.76c2.56-69.12 12.032-129.792 25.344-181.76 46.592 6.656 95.232 10.752 145.152 10.752z m-232.448 232.96c2.048 57.856 8.704 113.152 19.2 163.072-42.496 9.984-82.432 22.528-116.48 38.656C140.288 685.056 115.2 615.424 110.08 542.72h169.472z m433.408 0H913.92c-5.888 72.448-30.72 142.08-72.448 201.728-46.592-20.736-95.488-35.84-145.664-44.544 9.216-49.408 15.872-101.888 17.152-157.184z m0-62.464c-2.048-67.328-10.752-130.56-24.576-186.368 49.92-9.216 95.744-22.016 135.168-37.888 51.2 61.952 83.968 139.776 89.856 225.024h-200.448v-0.768zM368.896 134.144c-16.64 26.624-32 58.624-44.544 93.952-27.392-5.888-53.248-12.544-76.544-21.248 35.328-30.72 76.544-55.552 121.088-72.704zM223.744 793.6c27.392-11.264 57.856-20.736 90.624-27.904 14.592 47.872 33.28 89.856 54.528 123.136-55.296-21.248-104.448-54.016-145.152-95.232z m391.424 107.776c25.856-36.608 47.872-85.248 65.28-141.824 44.544 7.936 83.968 20.736 119.04 34.56-49.92 51.456-113.152 88.576-184.32 107.264z m0 0" p-id="2122" fill="#1397F9"></path></svg>