<?xml version="1.0" standalone="no"?><!DOCTYPE svg PUBLIC "-//W3C//DTD SVG 1.1//EN" "http://www.w3.org/Graphics/SVG/1.1/DTD/svg11.dtd"><svg t="1557110741250" class="icon" style="" viewBox="0 0 1024 1024" version="1.1" xmlns="http://www.w3.org/2000/svg" p-id="4659" xmlns:xlink="http://www.w3.org/1999/xlink" width="24" height="24"><defs><style type="text/css"></style></defs><path d="M854.534865 259.712043c11.280928-11.280928 11.280928-29.740348 0-41.022299l-49.226145-49.227168c-11.280928-11.280928-29.740348-11.280928-41.022299 0L532.509614 401.23836c-11.279904 11.280928-29.740348 11.280928-41.021276 0L259.712555 169.4636c-11.280928-11.280928-29.740348-11.280928-41.022299 0l-49.226145 49.228191c-11.280928 11.280928-11.280928 29.740348 0 41.022299l231.774761 231.773737c11.280928 11.280928 11.280928 29.740348 0 41.022299L169.463088 764.283864c-11.280928 11.280928-11.280928 29.740348 0 41.022299l49.226145 49.228191c11.280928 11.280928 29.741371 11.280928 41.022299 0L491.487316 622.759593c11.280928-11.280928 29.741371-11.280928 41.021276 0L764.286422 854.535377c11.280928 11.280928 29.740348 11.280928 41.022299 0l49.226145-49.227168c11.280928-11.280928 11.280928-29.740348 0-41.022299L622.759081 532.510126c-11.280928-11.280928-11.280928-29.741371 0-41.022299L854.534865 259.712043z" p-id="4660" fill="#1397F9"></path></svg>