<?xml version="1.0" standalone="no"?><!DOCTYPE svg PUBLIC "-//W3C//DTD SVG 1.1//EN" "http://www.w3.org/Graphics/SVG/1.1/DTD/svg11.dtd"><svg t="1631094134976" class="icon" viewBox="0 0 1024 1024" version="1.1" xmlns="http://www.w3.org/2000/svg" p-id="1508" width="24" height="24" xmlns:xlink="http://www.w3.org/1999/xlink"><defs><style type="text/css"></style></defs><path d="M410.502095 311.921778c0 0-429.356698 563.492571 129.61727 575.154794 0 0 548.441397 0 13.653333-601.84381C454.257778 276.276825 410.502095 311.921778 410.502095 311.921778zM548.717714 585.435429c59.936508 21.162667 84.163048 48.88381 84.163048 94.281143 0 44.836571-31.760254 83.130921-89.713778 93.232762l0 51.378794-49.42019 0 0-47.85981c-33.759492-1.511619-66.519365-10.581333-85.682794-21.650286l15.140571-58.985651c21.170794 11.580952 50.899302 22.170413 83.683556 22.170413 28.728889 0 48.388063-11.085206 48.388063-31.240127 0-19.155302-16.132063-31.264508-53.434921-43.86946-53.930667-18.139429-90.737778-43.333079-90.737778-92.216889 0-44.365206 31.264508-79.124317 85.195175-89.713778l0-47.908571 49.371429 0 0 44.365206c33.767619 1.519746 56.466286 8.54146 73.094095 16.635937l-14.620444 56.962032c-13.084444-5.542603-36.27073-17.147937-72.606476-17.147937-32.735492 0-43.333079 14.108444-43.333079 28.233143C488.212317 558.713905 505.864127 569.303365 548.717714 585.435429z" p-id="1509" fill="#1395F9"></path><path d="M544.987429 258.454349c0 0 37.254095-115.045587-6.485333-119.905524-36.831492-4.087873-93.175873-3.258921-150.69054 36.343873 17.944381 22.966857 38.091175 45.48673 38.091175 45.48673l-48.891937-37.571048c-7.208635 5.583238-14.409143 11.767873-21.577143 18.692063l56.701968 82.310095C412.127492 283.802413 477.947937 248.718222 544.987429 258.454349z" p-id="1510" fill="#1395F9"></path><path d="M225.263746 641.747302l-113.452698 0 0-34.531556c22.584889-9.362286 47.737905-33.670095 47.737905-62.62654 0-5.965206-0.406349-11.077079-1.275937-17.034159l-41.772698 0 0-43.910095 34.100825 0c-2.121143-10.654476-3.413333-23.023746-3.413333-34.507175 0-53.719365 39.212698-89.071746 96.304762-89.071746 23.462603 0 40.911238 5.087492 50.265397 10.223746l-10.654476 49.005714c-8.078222-4.68927-20.016762-7.68-35.75873-7.68-30.256762 0-39.627175 19.61854-39.627175 40.082286 0 11.068952 1.235302 21.300825 3.811556 31.955302l58.408635 0 0 1.381587c19.423492-44.722794 42.105905-85.861587 62.325841-119.100952-24.478476-34.312127-54.580825-71.891302-91.209143-113.111365-77.750857-7.013587-111.932952 20.837587-111.932952 20.837587s-334.108444 438.507683 98.710349 449.316571C222.817524 696.929524 222.362413 669.549714 225.263746 641.747302z" p-id="1511" fill="#1395F9"></path><path d="M213.227683 557.795556c-3.819683 10.67073-10.654476 21.317079-20.853841 30.264889l0 0.837079 42.06527 0c4.916825-20.618159 11.255873-41.20381 18.537651-61.334349l-35.888762 0C217.502476 538.209524 216.665397 547.986286 213.227683 557.795556z" p-id="1512" fill="#1395F9"></path><path d="M234.179048 231.862857c0 0 29.110857-89.892571-5.054984-93.671619-28.785778-3.202032-72.817778-2.543746-117.751873 28.395683 14.035302 17.936254 29.769143 35.531175 29.769143 35.531175l-38.196825-29.338413c-5.632 4.356063-11.264 9.183492-16.871619 14.587937l44.308317 64.300698C130.381206 251.668317 181.808762 224.272254 234.179048 231.862857z" p-id="1513" fill="#1395F9"></path><path d="M834.958222 252.806095c-77.74273-7.013587-111.932952 20.837587-111.932952 20.837587s-28.988952 38.05054-58.823111 91.99746c18.285714 23.917714 34.832254 47.095873 49.82654 69.591365 4.380444-7.834413 9.419175-15.067429 15.075556-21.601524 24.291556-27.266032 58.359873-43.471238 98.434032-43.471238 25.981968 0 48.566857 5.948952 63.91873 12.791873l-11.946667 48.583111c-11.060825-4.681143-28.558222-10.231873-47.290921-10.231873-20.463746 0-39.204571 6.802286-52.419048 22.999365-5.965206 6.834794-10.662603 16.619683-13.645206 27.680508l106.114032 0 0 30.264889L754.054095 502.247619c2.218667 3.323937 9.614222 16.083302 11.629714 20.024889l106.585397 0 0 30.248635L780.182349 552.521143c2.917587 6.550349 5.705143 13.035683 8.257016 19.399111 3.250794 8.159492 6.135873 16.180825 8.809651 24.112762 11.036444 5.575111 23.82019 8.061968 37.091556 8.061968 19.602286 0 39.627175-6.38781 48.583111-11.068952l10.24 47.290921c-14.506667 8.11073-39.212698 16.197079-66.486857 16.197079-4.908698 0-9.760508-0.251937-14.563556-0.723302 3.584 23.698286 3.93346 46.006857 1.178413 66.901333 3.624635 0.146286 7.281778 0.251937 11.012063 0.333206C824.303746 723.033397 1252.807111 723.033397 834.958222 252.806095z" p-id="1514" fill="#1395F9"></path><path d="M828.090921 231.862857c0 0 29.110857-89.892571-5.054984-93.671619-28.769524-3.202032-72.817778-2.543746-117.735619 28.395683 14.027175 17.936254 29.761016 35.531175 29.761016 35.531175l-38.196825-29.338413c-5.632 4.356063-11.272127 9.183492-16.871619 14.587937l44.30019 64.300698C724.284952 251.668317 775.712508 224.272254 828.090921 231.862857z" p-id="1515" fill="#1395F9"></path></svg>