<?xml version="1.0" standalone="no"?><!DOCTYPE svg PUBLIC "-//W3C//DTD SVG 1.1//EN" "http://www.w3.org/Graphics/SVG/1.1/DTD/svg11.dtd"><svg t="1631934631241" class="icon" viewBox="0 0 1024 1024" version="1.1" xmlns="http://www.w3.org/2000/svg" p-id="3526" width="24" height="24" xmlns:xlink="http://www.w3.org/1999/xlink"><defs><style type="text/css"></style></defs><path d="M938.666667 298.666667v465.066666c0 72.533333-55.466667 128-128 128H213.333333c-72.533333 0-128-55.466667-128-128V298.666667c0-72.533333 55.466667-128 128-128h170.666667v85.333333H213.333333c-25.6 0-42.666667 17.066667-42.666666 42.666667v465.066666c0 25.6 17.066667 42.666667 42.666666 42.666667h597.333334c25.6 0 42.666667-17.066667 42.666666-42.666667V298.666667c0-25.6-17.066667-42.666667-42.666666-42.666667h-170.666667V170.666667h170.666667c72.533333 0 128 55.466667 128 128z m-226.133334 226.133333c-17.066667-17.066667-42.666667-17.066667-59.733333 0L554.666667 622.933333V102.4c0-25.6-17.066667-42.666667-42.666667-42.666667s-42.666667 17.066667-42.666667 42.666667v516.266667l-98.133333-98.133334c-17.066667-17.066667-42.666667-17.066667-59.733333 0-17.066667 17.066667-17.066667 42.666667 0 59.733334l170.666666 170.666666c17.066667 17.066667 42.666667 17.066667 59.733334 0l170.666666-170.666666c17.066667-12.8 17.066667-38.4 0-55.466667z" p-id="3527" fill="#1395F9"></path></svg>