<?xml version="1.0" standalone="no"?><!DOCTYPE svg PUBLIC "-//W3C//DTD SVG 1.1//EN" "http://www.w3.org/Graphics/SVG/1.1/DTD/svg11.dtd"><svg t="1595601144557" class="icon" viewBox="0 0 1024 1024" version="1.1" xmlns="http://www.w3.org/2000/svg" p-id="6416" width="24" height="24" xmlns:xlink="http://www.w3.org/1999/xlink"><defs><style type="text/css"></style></defs><path d="M512 1024C229.236 1024 0 794.764 0 512S229.236 0 512 0s512 229.236 512 512-229.236 512-512 512z m0-68.236c245.015 0 443.764-198.61 443.764-443.764S757.015 68.236 512 68.236C266.985 68.236 68.236 266.985 68.236 512c0 245.015 198.749 443.764 443.764 443.764z" p-id="6417" fill="#1397f9"></path><path d="M525.265 261.725c46.639 0 84.434 12.335 113.571 38.633 29.184 25.46 43.66 60.462 43.66 104.122 0 35.654-9.449 65.443-27.648 88.762-6.516 8.006-26.996 26.997-61.114 56.786-13.87 11.683-24.018 24.808-30.627 37.841-8.006 14.522-11.636 30.627-11.636 48.128v12.335h-77.964v-12.335c0-26.996 4.329-50.269 14.476-69.12 9.495-20.34 37.143-50.269 82.292-90.298l12.334-13.824c13.173-16.803 20.34-34.164 20.34-53.155 0-25.507-7.307-45.15-21.13-59.671-14.523-14.522-35.655-21.83-61.906-21.83-32.815 0-56.786 10.193-71.354 31.325-13.126 17.501-19.643 42.31-19.643 74.287h-76.474c0-53.155 15.36-94.627 45.847-125.254 30.86-31.418 73.123-46.732 126.976-46.732z m-13.032 425.938c15.313 0 28.346 4.328 38.632 14.522 10.147 9.495 15.314 21.83 15.314 37.143 0 15.313-5.818 27.648-16.012 37.795a54.458 54.458 0 0 1-37.841 14.522c-14.476 0-27.648-5.12-37.795-15.313a50.735 50.735 0 0 1-15.36-37.144c0-15.313 5.166-27.648 15.36-37.143 9.914-10.054 23.086-14.429 37.702-14.429z" p-id="6418" fill="#1397f9"></path></svg>